<?xml version="1.0" encoding="utf-8"?>
<!-- Generator: Adobe Illustrator 27.0.0, SVG Export Plug-In . SVG Version: 6.00 Build 0)  -->
<svg version="1.1" id="Слой_1" xmlns="http://www.w3.org/2000/svg" xmlns:xlink="http://www.w3.org/1999/xlink" x="0px" y="0px"
	 viewBox="0 0 487.12 392.57" style="enable-background:new 0 0 487.12 392.57;" xml:space="preserve">
<rect x="124.5" y="338.89" transform="matrix(0.866 -0.5001 0.5001 0.866 -150.3322 119.2503)" width="45.63" height="2.4"/>
<path d="M35.03,350.67c-2.12-1.26-4.51-1.89-7.15-1.89c-4.04,0-7.33,1.34-9.88,4.04c-2.55,2.69-3.83,6.41-3.83,11.16
	c0,2.52,0.55,4.9,1.64,7.15c1.09,2.25,2.7,4.03,4.82,5.33c2.12,1.3,4.53,1.95,7.23,1.95c2.49,0,4.8-0.59,6.95-1.77
	c2.15-1.18,3.81-2.91,4.98-5.21c1.17-2.29,1.76-4.89,1.76-7.79c0-2.86-0.56-5.43-1.67-7.68C38.77,353.69,37.16,351.93,35.03,350.67z
	 M34.89,372.15c-1.84,2.01-4.19,3.01-7.04,3.01c-2.8,0-5.13-0.99-6.98-2.98c-1.86-1.99-2.78-4.7-2.78-8.16
	c0-4.31,0.97-7.39,2.9-9.23c1.93-1.84,4.24-2.77,6.92-2.77c1.89,0,3.59,0.48,5.11,1.44s2.67,2.3,3.46,4.04s1.18,3.77,1.18,6.1
	C37.65,367.3,36.73,370.15,34.89,372.15z"/>
<polygon points="284.63,217.04 269.75,217.04 269.75,205.28 265.96,205.28 265.96,233.91 269.75,233.91 269.75,220.42 
	284.63,220.42 284.63,233.91 288.42,233.91 288.42,205.28 284.63,205.28 "/>
<polygon points="234.75,303.44 219.87,303.44 219.87,291.68 216.08,291.68 216.08,320.31 219.87,320.31 219.87,306.82 
	234.75,306.82 234.75,320.31 238.54,320.31 238.54,291.68 234.75,291.68 "/>
<polygon points="232.89,282.78 221.74,282.78 221.32,285.18 233.32,285.18 "/>
<polygon points="230.7,270.54 223.93,270.54 223.5,272.94 231.13,272.94 "/>
<polygon points="228.52,258.3 226.12,258.3 225.69,260.7 228.94,260.7 "/>
<polygon points="334.51,303.44 319.62,303.44 319.62,291.68 315.83,291.68 315.83,320.31 319.62,320.31 319.62,306.82 
	334.51,306.82 334.51,320.31 338.29,320.31 338.29,291.68 334.51,291.68 "/>
<polygon points="321.08,285.18 333.08,285.18 332.65,282.78 321.5,282.78 "/>
<polygon points="323.26,272.94 330.89,272.94 330.46,270.54 323.69,270.54 "/>
<polygon points="325.88,258.3 325.45,260.7 328.7,260.7 328.28,258.3 "/>
<polygon points="158.65,176.31 158.65,147.68 154.87,147.68 154.87,159.44 139.98,159.44 139.98,147.68 136.19,147.68 
	136.19,176.31 139.98,176.31 139.98,162.82 154.87,162.82 154.87,176.31 "/>
<path d="M184.67,149.07c-2.12-1.27-4.51-1.89-7.15-1.89c-4.04,0-7.33,1.34-9.88,4.03c-2.55,2.69-3.83,6.41-3.83,11.16
	c0,2.51,0.55,4.89,1.64,7.15c1.09,2.25,2.7,4.03,4.82,5.33c2.12,1.3,4.53,1.95,7.23,1.95c2.49,0,4.8-0.59,6.95-1.77
	c2.15-1.18,3.81-2.91,4.98-5.2c1.17-2.29,1.76-4.89,1.76-7.79c0-2.87-0.56-5.43-1.67-7.69
	C188.41,152.09,186.79,150.33,184.67,149.07z M184.52,170.55c-1.84,2-4.19,3.01-7.04,3.01c-2.8,0-5.13-0.99-6.98-2.98
	c-1.86-1.98-2.78-4.7-2.78-8.15c0-4.31,0.97-7.39,2.9-9.23c1.93-1.84,4.24-2.76,6.92-2.76c1.89,0,3.59,0.48,5.11,1.43
	s2.67,2.3,3.46,4.04s1.18,3.77,1.18,6.11C187.29,165.7,186.37,168.54,184.52,170.55z"/>
<path d="M438.96,131.27c-2.12-1.27-4.51-1.89-7.15-1.89c-4.04,0-7.33,1.34-9.88,4.03c-2.55,2.69-3.83,6.41-3.83,11.16
	c0,2.51,0.55,4.89,1.64,7.15c1.09,2.25,2.7,4.03,4.82,5.33c2.12,1.3,4.53,1.95,7.23,1.95c2.49,0,4.8-0.59,6.95-1.77
	c2.15-1.18,3.81-2.91,4.98-5.2c1.17-2.29,1.76-4.89,1.76-7.79c0-2.87-0.56-5.43-1.67-7.69C442.7,134.29,441.08,132.53,438.96,131.27
	z M438.81,152.75c-1.84,2-4.19,3.01-7.04,3.01c-2.8,0-5.13-0.99-6.98-2.98c-1.86-1.98-2.78-4.7-2.78-8.15c0-4.31,0.96-7.39,2.9-9.23
	c1.93-1.84,4.24-2.76,6.92-2.76c1.89,0,3.59,0.48,5.11,1.43s2.67,2.3,3.46,4.04s1.18,3.77,1.18,6.11
	C441.58,147.9,440.65,150.74,438.81,152.75z"/>
<polygon points="469.15,141.64 454.27,141.64 454.27,129.88 450.48,129.88 450.48,158.51 454.27,158.51 454.27,145.02 
	469.15,145.02 469.15,158.51 472.94,158.51 472.94,129.88 469.15,129.88 "/>
<polygon points="414.44,160.47 416.74,159.65 410.74,149.25 408.87,150.83 "/>
<polygon points="402.77,164.69 405.07,163.86 401.25,157.25 399.39,158.83 "/>
<polygon points="391.1,168.9 393.4,168.08 391.77,165.25 389.9,166.83 "/>
<path d="M388.02,113.09l44.9-25.92V49.58h-2.4v36.2l-43.5,25.11l-33.89-19.57l-1.2,2.08l32.69,18.88l-7.97,4.6l-28.71-16.57
	l-1.2,2.08l29.43,16.99l4.39,52.65l-52.15,16.95l4.66-55.9h-12l4.62,55.42l-48.5-28l-49.8,28.75l-28.99-22.18l-6,10.39l33.7,14.01
	v56.12l-47.3,27.31l4.62-55.42h-12l4.62,55.42l-48.5-28l-51.08,29.49v51.61l-33.92,19.59l1.2,2.08l32.72-18.89v4.6l3.98,2.3
	l-32.72,18.89l1.2,2.08l33.92-19.59l44.7,25.81l49.88-28.8l49.88,28.8l51.08-29.49v-57.6l48.82-28.19l55.08,17.9l34.91-48.01
	l-34.13-46.95L388.02,113.09z M127.56,362.08l-48.68-28.11v-56.22l48.68-28.11l48.68,28.11v56.22L127.56,362.08z M227.32,362.08
	l-48.68-28.11v-56.22l48.68-28.11L276,277.76v56.22L227.32,362.08z M278.69,274.82l4.51-34.64h-12l4.51,34.64l-47.19-27.24v-56.22
	l48.68-28.11l48.68,28.11v56.22L278.69,274.82z M414.23,219.47l-32.85,45.19l-53.1-17.26v-55.86l53.1-17.26L414.23,219.47z"/>
<path d="M339.19,73.67c-2.12-1.26-4.5-1.89-7.15-1.89c-4.04,0-7.33,1.34-9.88,4.04c-2.55,2.69-3.83,6.41-3.83,11.16
	c0,2.52,0.55,4.9,1.64,7.15c1.09,2.25,2.7,4.03,4.82,5.33c2.12,1.3,4.53,1.95,7.23,1.95c2.48,0,4.8-0.59,6.95-1.77
	c2.15-1.18,3.81-2.91,4.98-5.21c1.17-2.29,1.76-4.89,1.76-7.79c0-2.86-0.56-5.43-1.67-7.68C342.93,76.69,341.31,74.93,339.19,73.67z
	 M339.04,95.15c-1.84,2.01-4.19,3.01-7.04,3.01c-2.8,0-5.13-0.99-6.98-2.98c-1.86-1.99-2.79-4.7-2.79-8.16
	c0-4.31,0.96-7.39,2.9-9.23c1.93-1.84,4.24-2.77,6.92-2.77c1.89,0,3.59,0.48,5.11,1.44c1.52,0.96,2.67,2.3,3.45,4.04
	c0.79,1.74,1.18,3.77,1.18,6.1C341.81,90.3,340.88,93.15,339.04,95.15z"/>
<path d="M438.96,16.07c-2.12-1.27-4.51-1.89-7.15-1.89c-4.04,0-7.33,1.34-9.88,4.03c-2.55,2.69-3.83,6.41-3.83,11.16
	c0,2.51,0.55,4.89,1.64,7.15c1.09,2.25,2.7,4.03,4.82,5.33c2.12,1.3,4.53,1.95,7.23,1.95c2.49,0,4.8-0.59,6.95-1.77
	c2.15-1.18,3.81-2.91,4.98-5.2c1.17-2.29,1.76-4.89,1.76-7.79c0-2.87-0.56-5.43-1.67-7.69C442.7,19.09,441.08,17.33,438.96,16.07z
	 M438.81,37.55c-1.84,2-4.19,3.01-7.04,3.01c-2.8,0-5.13-0.99-6.98-2.98c-1.86-1.98-2.78-4.7-2.78-8.15c0-4.31,0.96-7.39,2.9-9.23
	c1.93-1.84,4.24-2.76,6.92-2.76c1.89,0,3.59,0.48,5.11,1.43s2.67,2.3,3.46,4.04s1.18,3.77,1.18,6.11
	C441.58,32.7,440.65,35.54,438.81,37.55z"/>
<polygon points="469.15,14.68 469.15,26.44 454.27,26.44 454.27,14.68 450.48,14.68 450.48,43.31 454.27,43.31 454.27,29.82 
	469.15,29.82 469.15,43.31 472.94,43.31 472.94,14.68 "/>
</svg>
